<?xml version="1.0" encoding="iso-8859-1"?>
<!-- Uploaded to: SVG Repo, www.svgrepo.com, Generator: SVG Repo Mixer Tools -->
<svg fill="#000000" height="800px" width="800px" version="1.1" id="Layer_1" xmlns="http://www.w3.org/2000/svg" xmlns:xlink="http://www.w3.org/1999/xlink" 
	 viewBox="0 0 512.089 512.089" xml:space="preserve">
<g transform="translate(0 -1)">
	<g>
		<path d="M398.943,355.53l-118.182-98.485l118.182-98.485c11.165-9.304,11.165-26.453,0-35.757L259.307,6.439
			c-15.158-12.632-38.172-1.853-38.172,17.879v176.542l-76.635-76.635c-9.089-9.089-23.824-9.089-32.913,0s-9.089,23.824,0,32.913
			l99.907,99.907l-99.907,99.907c-9.089,9.089-9.089,23.824,0,32.913s23.824,9.089,32.913,0l76.635-76.635v176.542
			c0,19.732,23.013,30.51,38.172,17.879l139.636-116.364C410.109,381.982,410.109,364.834,398.943,355.53z M267.681,74.005
			l80.01,66.675l-80.01,66.675V74.005z M267.681,440.083V306.733l80.01,66.675L267.681,440.083z"/>
	</g>
</g>
</svg>