<svg width="33" height="33" viewBox="0 0 33 33" fill="none" xmlns="http://www.w3.org/2000/svg">
<path d="M16.4616 0C7.37012 0 0 7.37005 0 16.4616C0 25.5531 7.37012 32.9231 16.4616 32.9231C25.553 32.9231 32.9231 25.553 32.9231 16.4616C32.9231 7.37012 25.553 0 16.4616 0ZM26.5496 26.5496C24.0481 29.0436 20.7077 30.5168 17.1793 30.6824C13.6508 30.8479 10.1872 29.6939 7.46314 27.4451C4.73912 25.1963 2.94989 22.014 2.4441 18.518C1.93831 15.0221 2.75218 11.4631 4.72714 8.53451C6.70209 5.60589 9.69665 3.51746 13.1273 2.67616C16.558 1.83485 20.179 2.30093 23.2848 3.98358C26.3905 5.66624 28.7586 8.44493 29.9276 11.7782C31.0965 15.1115 30.9826 18.7606 29.608 22.0145C28.8916 23.7098 27.8529 25.25 26.5496 26.5496Z" fill="white" fill-opacity="0.75"/>
<path d="M17.6014 10.2163L16.0493 8.66431L8.25195 16.4617L16.0493 24.259L17.6014 22.7071L12.4534 17.5591H25.3099V15.3642H12.4534L17.6014 10.2163Z" fill="white" fill-opacity="0.75"/>
</svg>
