<svg width="22" height="22" viewBox="0 0 22 22" fill="none" xmlns="http://www.w3.org/2000/svg">
<mask id="path-1-inside-1_448_545" fill="white">
<path fill-rule="evenodd" clip-rule="evenodd" d="M20.4517 16.6305C21.435 14.9834 22 13.0577 22 11C22 4.92487 17.0751 0 11 0C4.92487 0 0 4.92487 0 11C0 17.0751 4.92487 22 11 22C13.062 22 14.9915 21.4326 16.6409 20.4455L21.8478 21.8407L20.4517 16.6305Z"/>
</mask>
<path d="M20.4517 16.6305L18.9062 15.7078C18.6568 16.1255 18.5871 16.6264 18.7131 17.0963L20.4517 16.6305ZM16.6409 20.4455L17.1068 18.7068C16.6362 18.5807 16.1346 18.6508 15.7165 18.901L16.6409 20.4455ZM21.8478 21.8407L21.3819 23.5793C22.0031 23.7458 22.6659 23.5682 23.1206 23.1135C23.5753 22.6587 23.7529 21.996 23.5865 21.3748L21.8478 21.8407ZM20.2 11C20.2 12.7239 19.7276 14.3319 18.9062 15.7078L21.9973 17.5531C23.1425 15.6348 23.8 13.3915 23.8 11H20.2ZM11 1.8C16.081 1.8 20.2 5.91898 20.2 11H23.8C23.8 3.93076 18.0692 -1.8 11 -1.8V1.8ZM1.8 11C1.8 5.91898 5.91898 1.8 11 1.8V-1.8C3.93076 -1.8 -1.8 3.93076 -1.8 11H1.8ZM11 20.2C5.91898 20.2 1.8 16.081 1.8 11H-1.8C-1.8 18.0692 3.93076 23.8 11 23.8V20.2ZM15.7165 18.901C14.3387 19.7256 12.7275 20.2 11 20.2V23.8C13.3965 23.8 15.6443 23.1397 17.5653 21.99L15.7165 18.901ZM16.175 22.1842L21.3819 23.5793L22.3137 20.102L17.1068 18.7068L16.175 22.1842ZM23.5865 21.3748L22.1904 16.1646L18.7131 17.0963L20.1091 22.3065L23.5865 21.3748Z" fill="black" mask="url(#path-1-inside-1_448_545)"/>
</svg>
