<svg width="30" height="30" viewBox="0 0 30 30" fill="none" xmlns="http://www.w3.org/2000/svg">
<path d="M26.4616 23.0513C28.3301 21.386 29.3881 19.1663 29.3881 16.8629C29.3881 14.4149 28.2421 12.1255 26.1612 10.416C24.1359 8.75277 21.4551 7.83667 18.6123 7.83667C15.7696 7.83667 13.0888 8.75277 11.0639 10.4161C8.98291 12.1255 7.83691 14.4149 7.83691 16.8629C7.83691 19.3109 8.98291 21.6003 11.0639 23.3098C13.0888 24.9731 15.7696 25.8891 18.6123 25.8891C18.9911 25.8891 19.3723 25.8724 19.7502 25.8392L20.3959 26.3988C22.6202 28.3263 25.4649 29.3874 28.4082 29.3875H29.3878V27.3024L29.1009 27.0156C27.9691 25.8805 27.0722 24.5333 26.4616 23.0513ZM21.679 24.9182L20.3834 23.7953L19.9514 23.8482C19.5071 23.9026 19.06 23.9298 18.6123 23.9298C13.7512 23.9298 9.79608 20.7596 9.79608 16.8629C9.79608 12.9661 13.7512 9.79584 18.6123 9.79584C23.4735 9.79584 27.4286 12.9661 27.4286 16.8629C27.4286 18.8043 26.4601 20.6168 24.7013 21.9664L24.1371 22.3993L24.3975 23.1361C24.931 24.641 25.7151 26.0448 26.7168 27.2882C24.8514 26.9768 23.1082 26.1567 21.679 24.9182Z" fill="url(#paint0_linear_312_529)"/>
<path d="M2.70519 18.4576C3.62215 17.2969 4.34211 15.9933 4.83627 14.5991L5.09464 13.8659L4.53095 13.4333C2.87251 12.1607 1.95917 10.4527 1.95917 8.62384C1.95917 4.94892 5.69439 1.95917 10.2856 1.95917C13.6633 1.95917 16.5775 3.57732 17.8821 5.89588C18.1244 5.88412 18.3677 5.87751 18.6121 5.87751C19.103 5.87751 19.5894 5.90133 20.0713 5.94896C19.5671 4.64274 18.6915 3.45034 17.4877 2.46157C15.5553 0.874218 12.9979 0 10.2856 0C7.57342 0 5.01596 0.874218 3.08349 2.46157C1.09505 4.09497 0 6.28342 0 8.62384C0 10.8157 1.00114 12.9276 2.77039 14.5162C2.19301 15.9057 1.34935 17.1688 0.286957 18.2343L0 18.5212V20.5713H0.979585C2.79103 20.5711 4.57755 20.1492 6.19777 19.3391C6.02011 18.6658 5.91601 17.9751 5.88731 17.2793C4.90391 17.8556 3.82679 18.2545 2.70519 18.4576Z" fill="url(#paint1_linear_312_529)"/>
<defs>
<linearGradient id="paint0_linear_312_529" x1="18.6125" y1="7.83667" x2="18.6125" y2="29.3875" gradientUnits="userSpaceOnUse">
<stop stop-color="#3185EC"/>
<stop offset="1" stop-color="#3830D7"/>
</linearGradient>
<linearGradient id="paint1_linear_312_529" x1="10.0357" y1="0" x2="10.0357" y2="20.5713" gradientUnits="userSpaceOnUse">
<stop stop-color="#3185EC"/>
<stop offset="1" stop-color="#3830D7"/>
</linearGradient>
</defs>
</svg>
