<svg width="30" height="30" viewBox="0 0 30 30" fill="none" xmlns="http://www.w3.org/2000/svg">
<g id="Icons / Close">
<path id="Shape" fill-rule="evenodd" clip-rule="evenodd" d="M16.8821 14.8413L24.2531 7.58827C24.7725 7.07716 24.7725 6.24723 24.2531 5.73612C23.7336 5.22501 22.8902 5.22501 22.3708 5.73612L14.9998 12.9891L7.62879 5.73612C7.10936 5.22501 6.26593 5.22501 5.7465 5.73612C5.22708 6.24723 5.22708 7.07716 5.7465 7.58827L13.1175 14.8413L5.7465 22.0943C5.22708 22.6054 5.22708 23.4353 5.7465 23.9464C6.26593 24.4575 7.10936 24.4575 7.62879 23.9464L14.9998 16.6934L22.3708 23.9464C22.8902 24.4575 23.7336 24.4575 24.2531 23.9464C24.7725 23.4353 24.7725 22.6054 24.2531 22.0943L16.8821 14.8413Z" fill="white"/>
<mask id="mask0_239_635" style="mask-type:luminance" maskUnits="userSpaceOnUse" x="5" y="5" width="20" height="20">
<path id="Shape_2" fill-rule="evenodd" clip-rule="evenodd" d="M16.8821 14.8413L24.2531 7.58827C24.7725 7.07716 24.7725 6.24723 24.2531 5.73612C23.7336 5.22501 22.8902 5.22501 22.3708 5.73612L14.9998 12.9891L7.62879 5.73612C7.10936 5.22501 6.26593 5.22501 5.7465 5.73612C5.22708 6.24723 5.22708 7.07716 5.7465 7.58827L13.1175 14.8413L5.7465 22.0943C5.22708 22.6054 5.22708 23.4353 5.7465 23.9464C6.26593 24.4575 7.10936 24.4575 7.62879 23.9464L14.9998 16.6934L22.3708 23.9464C22.8902 24.4575 23.7336 24.4575 24.2531 23.9464C24.7725 23.4353 24.7725 22.6054 24.2531 22.0943L16.8821 14.8413Z" fill="white"/>
</mask>
<g mask="url(#mask0_239_635)">
</g>
</g>
</svg>
