<svg width="24" height="24" viewBox="0 0 24 24" fill="none" xmlns="http://www.w3.org/2000/svg">
<g opacity="0.5">
<path d="M11.8798 2C6.58635 2 2.27979 6.486 2.27979 12C2.27979 17.514 6.58635 22 11.8798 22C17.1732 22 21.4798 17.514 21.4798 12C21.4798 6.486 17.1732 2 11.8798 2ZM11.8798 20C7.64523 20 4.19979 16.411 4.19979 12C4.19979 7.589 7.64523 4 11.8798 4C16.1143 4 19.5598 7.589 19.5598 12C19.5598 16.411 16.1143 20 11.8798 20Z" fill="#1B1A57"/>
<path d="M14.5958 14.8281C14.2449 15.1924 13.8305 15.4836 13.3747 15.6861C12.5542 16.0469 11.6388 16.0996 10.7851 15.8351C9.93147 15.5706 9.19253 15.0054 8.69471 14.2361L7.10303 15.3551C7.51817 15.9932 8.04632 16.543 8.65919 16.9751C9.28285 17.4144 9.98359 17.7213 10.7213 17.8781C11.4862 18.0406 12.2747 18.0406 13.0397 17.8781C13.7773 17.721 14.478 17.4142 15.1017 16.9751C15.4022 16.7631 15.6893 16.5171 15.9523 16.2441C16.2134 15.9731 16.4515 15.6731 16.6569 15.3551L15.0653 14.2361C14.9273 14.4486 14.7701 14.6468 14.5958 14.8281Z" fill="#1B1A57"/>
<path d="M15.2331 11.986C16.0247 11.986 16.6664 11.3176 16.6664 10.493C16.6664 9.66844 16.0247 9 15.2331 9C14.4415 9 13.7998 9.66844 13.7998 10.493C13.7998 11.3176 14.4415 11.986 15.2331 11.986Z" fill="#1B1A57"/>
<path d="M8.52008 12C9.31537 12 9.96008 11.3284 9.96008 10.5C9.96008 9.67157 9.31537 9 8.52008 9C7.72479 9 7.08008 9.67157 7.08008 10.5C7.08008 11.3284 7.72479 12 8.52008 12Z" fill="#1B1A57"/>
</g>
</svg>
