<svg width="23" height="20" viewBox="0 0 23 20" fill="none" xmlns="http://www.w3.org/2000/svg">
<path d="M11.314 4.18339L10.6642 3.55294C10.5296 3.42244 10.4002 3.29739 10.2744 3.17592C10.0546 2.96357 9.84611 2.76212 9.64146 2.56147C8.00072 0.953694 5.74236 0.498491 3.93299 1.27973L3.93283 1.2798C2.11907 2.06251 0.857025 4.05597 0.901114 6.2878L0.901115 6.28786C0.934423 7.97971 1.64327 9.47986 2.67634 10.9641L2.67663 10.9645C4.93146 14.2078 7.99036 16.6439 11.2533 19.0299C13.6308 17.2989 15.895 15.5126 17.8503 13.3974L18.5111 14.0083L17.8503 13.3974C19.5094 11.6026 20.8746 9.78716 21.4325 7.53915L21.4326 7.53892C22.0207 5.1723 21.0148 2.70673 19.1001 1.55457L11.314 4.18339ZM11.314 4.18339L11.9405 3.52977M11.314 4.18339L11.9405 3.52977M11.9405 3.52977C12.0847 3.37941 12.212 3.24131 12.3317 3.11147C12.5615 2.86227 12.7633 2.64348 13.0019 2.42673L13.0023 2.42642M11.9405 3.52977L13.0023 2.42642M13.0023 2.42642C14.8653 0.732473 17.2782 0.458961 19.1 1.55448L13.0023 2.42642ZM11.0873 19.1506C11.0875 19.1504 11.0877 19.1502 11.088 19.15C11.0878 19.1502 11.0875 19.1504 11.0873 19.1505L11.0873 19.1506ZM11.1764 19.1003L11.1835 19.1C11.1896 19.0998 11.2038 19.0998 11.225 19.1022C11.2453 19.1046 11.2813 19.1103 11.3278 19.1254C11.3732 19.1402 11.444 19.1691 11.5215 19.2255L11.1764 19.1003Z" fill="#FE0135" stroke="#FE0135" stroke-width="1.8"/>
</svg>
