<svg width="42" height="42" viewBox="0 0 42 42" fill="none" xmlns="http://www.w3.org/2000/svg">
<path fill-rule="evenodd" clip-rule="evenodd" d="M15.8105 39.9596H11.0086C9.24044 39.9667 7.80198 38.5394 7.79446 36.7716C7.79406 36.671 7.79842 36.5705 7.80713 36.4703C8.34269 31.545 10.0258 26.814 12.721 22.6573C15.1783 18.79 18.4574 15.5114 22.3247 13.054C26.5004 10.3489 31.2543 8.66542 36.2018 8.14015C37.9625 7.98102 39.5189 9.27936 39.678 11.04C39.6864 11.135 39.6907 11.23 39.6911 11.3254V16.1273C39.7065 17.734 38.5293 19.1035 36.9381 19.328C35.4011 19.531 33.8925 19.9067 32.4406 20.4486C31.2705 20.8884 29.952 20.6069 29.063 19.7282L27.0304 17.6956C23.0234 19.974 19.7055 23.2919 17.4271 27.2993L19.4597 29.3319C20.338 30.2205 20.6195 31.5394 20.1797 32.7091C19.6382 34.161 19.2621 35.67 19.0595 37.2066C18.8327 38.816 17.435 40 15.8105 39.9596Z" stroke="white" stroke-width="3" stroke-linecap="round" stroke-linejoin="round"/>
<path fill-rule="evenodd" clip-rule="evenodd" d="M22.3211 12.1515C22.3211 17.7581 17.7762 22.3031 12.1696 22.3031C6.56302 22.3031 2.01807 17.7581 2.01807 12.1515C2.01807 6.54496 6.56302 2 12.1696 2C17.7762 2 22.3211 6.54496 22.3211 12.1515Z" fill="#F4F4F6"/>
<path fill-rule="evenodd" clip-rule="evenodd" d="M22.3212 12.1515C22.3212 17.7581 17.7762 22.3031 12.1696 22.3031C6.56302 22.3031 2.01807 17.7581 2.01807 12.1515C2.01807 6.54496 6.56302 2 12.1696 2C17.7762 2 22.3212 6.54496 22.3212 12.1515Z" stroke="#B9B9B9" stroke-width="3" stroke-linecap="round" stroke-linejoin="round"/>
<path d="M9.91772 9.16772V15.1353" stroke="#908F9D" stroke-width="3" stroke-linecap="round" stroke-linejoin="round"/>
<path d="M14.4214 9.16772V15.1353" stroke="#908F9D" stroke-width="3" stroke-linecap="round" stroke-linejoin="round"/>
</svg>
