<svg width="23" height="24" viewBox="0 0 23 24" fill="none" xmlns="http://www.w3.org/2000/svg">
<path d="M18.4175 8.13472C16.1362 8.13472 14.2803 6.31011 14.2803 4.06736C14.2803 1.82461 16.1362 0 18.4175 0C20.6988 0 22.5547 1.82461 22.5547 4.06736C22.5547 6.31011 20.6988 8.13472 18.4175 8.13472ZM18.4175 1.88796C17.206 1.88796 16.2136 2.86362 16.2136 4.05469C16.2136 5.24575 17.206 6.22141 18.4175 6.22141C19.629 6.22141 20.6214 5.24575 20.6214 4.05469C20.6214 2.86362 19.629 1.88796 18.4175 1.88796Z" fill="#292D32"/>
<path d="M4.13723 8.13472C1.85596 8.13472 0 6.31011 0 4.06736C0 1.82461 1.85596 0 4.13723 0C6.41849 0 8.27443 1.82461 8.27443 4.06736C8.27443 6.31011 6.41849 8.13472 4.13723 8.13472ZM4.13723 1.88796C2.92571 1.88796 1.93328 2.86362 1.93328 4.05469C1.93328 5.24575 2.92571 6.22141 4.13723 6.22141C5.34875 6.22141 6.34115 5.24575 6.34115 4.05469C6.34115 2.86362 5.36163 1.88796 4.13723 1.88796Z" fill="#292D32"/>
<path d="M18.4175 23.7329C16.1362 23.7329 14.2803 21.9083 14.2803 19.6655C14.2803 17.4228 16.1362 15.5981 18.4175 15.5981C20.6988 15.5981 22.5547 17.4228 22.5547 19.6655C22.5547 21.9083 20.6988 23.7329 18.4175 23.7329ZM18.4175 17.4861C17.206 17.4861 16.2136 18.4618 16.2136 19.6528C16.2136 20.8439 17.206 21.8196 18.4175 21.8196C19.629 21.8196 20.6214 20.8439 20.6214 19.6528C20.6214 18.4618 19.629 17.4861 18.4175 17.4861Z" fill="#292D32"/>
<path d="M4.13723 23.7329C1.85596 23.7329 0 21.9083 0 19.6655C0 17.4228 1.85596 15.5981 4.13723 15.5981C6.41849 15.5981 8.27443 17.4228 8.27443 19.6655C8.27443 21.9083 6.41849 23.7329 4.13723 23.7329ZM4.13723 17.4861C2.92571 17.4861 1.93328 18.4618 1.93328 19.6528C1.93328 20.8439 2.92571 21.8196 4.13723 21.8196C5.34875 21.8196 6.34115 20.8439 6.34115 19.6528C6.34115 18.4618 5.36163 17.4861 4.13723 17.4861Z" fill="#292D32"/>
</svg>
