<svg width="16" height="24" viewBox="0 0 16 24" fill="none" xmlns="http://www.w3.org/2000/svg">
<path fill-rule="evenodd" clip-rule="evenodd" d="M3.99653 1.57945C4.77816 0.635943 5.96902 0.0332031 7.3 0.0332031C9.65181 0.0332031 11.5583 1.90707 11.5583 4.21938V12.6077C11.5583 13.1085 11.4686 13.5889 11.3042 14.0341L3.99653 1.57945ZM0.253032 1.39924C0.113286 1.16107 0.194641 0.857417 0.434742 0.721014L1.21071 0.280184C1.45081 0.14378 1.75873 0.22628 1.89848 0.464451L14.9674 22.7381C15.1072 22.9763 15.0258 23.2799 14.7857 23.4163L14.0097 23.8572C13.7696 23.9936 13.4617 23.9111 13.322 23.6729L0.253032 1.39924ZM13.0564 17.0204L12.0435 15.2941C12.5088 14.5014 12.775 13.5812 12.775 12.5997V9.91284C12.775 9.41538 13.18 9.01211 13.6875 9.01211C14.1915 9.01211 14.6 9.4204 14.6 9.91284V12.9001C14.6 12.9562 14.5949 13.0111 14.585 13.0643C14.4886 14.5513 13.9331 15.9153 13.0564 17.0204ZM8.2125 19.7312C8.66111 19.6762 9.09705 19.581 9.51654 19.4496L8.57458 17.8442C8.16561 17.9402 7.73884 17.991 7.3 17.991C4.27613 17.991 1.825 15.578 1.825 12.5997V9.91284C1.825 9.4204 1.41646 9.01211 0.9125 9.01211C0.405027 9.01211 0 9.41538 0 9.91284V12.9001C0 12.9551 0.00508093 13.0089 0.0148085 13.0613C0.237197 16.5168 2.93881 19.3079 6.3875 19.7312V22.1812H3.34902C2.85156 22.1812 2.43333 22.5832 2.43333 23.0791C2.43333 23.5784 2.8433 23.977 3.34902 23.977H11.251C11.7484 23.977 12.1667 23.575 12.1667 23.0791C12.1667 22.5797 11.7567 22.1812 11.251 22.1812H8.2125V19.7312ZM7.3 16.7938C7.51447 16.7938 7.7253 16.7782 7.93137 16.748L3.04167 8.41436V12.6077C3.04167 14.92 4.94819 16.7938 7.3 16.7938Z" fill="white"/>
</svg>
