<svg width="12" height="22" viewBox="0 0 12 22" fill="none" xmlns="http://www.w3.org/2000/svg">
<path d="M9.68006 5V16.5C9.68006 18.71 7.96166 20.5 5.84006 20.5C3.71846 20.5 2.00006 18.71 2.00006 16.5V4C2.00006 3.33696 2.25292 2.70107 2.703 2.23223C3.15309 1.76339 3.76354 1.5 4.40006 1.5C5.03658 1.5 5.64703 1.76339 6.09712 2.23223C6.5472 2.70107 6.80006 3.33696 6.80006 4V14.5C6.80006 15.05 6.36806 15.5 5.84006 15.5C5.31206 15.5 4.88006 15.05 4.88006 14.5V5H3.44006V14.5C3.44006 15.163 3.69292 15.7989 4.143 16.2678C4.59309 16.7366 5.20354 17 5.84006 17C6.47658 17 7.08703 16.7366 7.53712 16.2678C7.9872 15.7989 8.24006 15.163 8.24006 14.5V4C8.24006 1.79 6.52166 0 4.40006 0C2.27846 0 0.560059 1.79 0.560059 4V16.5C0.560059 19.54 2.92166 22 5.84006 22C8.75846 22 11.1201 19.54 11.1201 16.5V5H9.68006Z" fill="#1B1A57"/>
</svg>
