<svg width="83" height="84" viewBox="0 0 83 84" fill="none" xmlns="http://www.w3.org/2000/svg">
<path fill-rule="evenodd" clip-rule="evenodd" d="M41.5441 83.7756C18.676 83.7756 0.137451 65.0938 0.137451 42.0491C0.137451 19.004 18.676 0.322266 41.5441 0.322266C64.4126 0.322266 82.9511 19.004 82.9511 42.0491C82.9511 65.0938 64.4126 83.7756 41.5441 83.7756" fill="url(#paint0_linear_788_217)"/>
<path fill-rule="evenodd" clip-rule="evenodd" d="M54.5725 25.2896C49.3991 25.8432 44.4273 27.6172 40.0611 30.4678V30.4678C36.0172 33.0575 32.5882 36.5126 30.0188 40.588V40.588C27.2 44.9682 25.4399 49.9537 24.8799 55.1437V55.1437C24.8706 55.2496 24.8664 55.3555 24.8667 55.4611V55.4611C24.8742 57.3241 26.3792 58.8286 28.2277 58.8211V58.8211H33.249C34.9482 58.8634 36.4094 57.616 36.6467 55.9198V55.9198C36.859 54.3005 37.2515 52.7103 37.8183 51.1799V51.1799C38.2782 49.9476 37.9843 48.558 37.0652 47.6214V47.6214L34.9396 45.4794C37.3221 41.2565 40.7913 37.76 44.9819 35.3592V35.3592L47.1075 37.5012C48.0369 38.427 49.4158 38.7239 50.6391 38.2601V38.2601C52.158 37.6893 53.7358 37.293 55.3427 37.0798V37.0798C57.0066 36.8425 58.2381 35.3998 58.2217 33.7065V33.7065V28.646C58.2217 28.5459 58.217 28.4457 58.2078 28.3456V28.3456C58.051 26.5934 56.5909 25.2756 54.8778 25.2756V25.2756C54.777 25.2756 54.6748 25.2803 54.5725 25.2896" fill="#FF2222"/>
<defs>
<linearGradient id="paint0_linear_788_217" x1="0.137338" y1="83.7755" x2="82.9511" y2="83.7755" gradientUnits="userSpaceOnUse">
<stop stop-color="white"/>
<stop offset="1" stop-color="white"/>
</linearGradient>
</defs>
</svg>
