<svg width="34" height="33" viewBox="0 0 34 33" fill="none" xmlns="http://www.w3.org/2000/svg">
<ellipse cx="16.7255" cy="16.4038" rx="16.7255" ry="16.4038" fill="url(#paint0_linear_141_585)"/>
<path d="M22.8946 10.6031H21.5993V9.30781C21.5993 9.00434 21.3477 8.75269 21.0442 8.75269C20.7407 8.75269 20.4891 9.00434 20.4891 9.30781V10.6031H19.1938C18.8903 10.6031 18.6387 10.8548 18.6387 11.1582C18.6387 11.4617 18.8903 11.7134 19.1938 11.7134H20.4891V13.0086C20.4891 13.3121 20.7407 13.5638 21.0442 13.5638C21.3477 13.5638 21.5993 13.3121 21.5993 13.0086V11.7134H22.8946C23.1981 11.7134 23.4498 11.4617 23.4498 11.1582C23.4498 10.8548 23.1981 10.6031 22.8946 10.6031Z" fill="white"/>
<path d="M15.9002 17.7824L14.5309 19.1517C14.2422 19.4404 13.7833 19.4404 13.4872 19.1591C13.4058 19.0777 13.3244 19.0037 13.243 18.9223C12.4806 18.1525 11.7922 17.3457 11.1779 16.5019C10.571 15.6582 10.0825 14.8144 9.72718 13.978C9.3793 13.1342 9.20166 12.3274 9.20166 11.5576C9.20166 11.0543 9.29048 10.5732 9.46812 10.1291C9.64576 9.6776 9.92702 9.26311 10.3193 8.89302C10.793 8.42672 11.3111 8.19727 11.8589 8.19727C12.0661 8.19727 12.2734 8.24168 12.4584 8.3305C12.6508 8.41932 12.8211 8.55255 12.9543 8.74499L14.6715 11.1653C14.8047 11.3504 14.901 11.5206 14.9676 11.6835C15.0342 11.8389 15.0712 11.9943 15.0712 12.135C15.0712 12.3126 15.0194 12.4902 14.9158 12.6605C14.8195 12.8307 14.6789 13.0084 14.5013 13.186L13.9387 13.7707C13.8573 13.8521 13.8203 13.9484 13.8203 14.0668C13.8203 14.126 13.8277 14.1778 13.8425 14.237C13.8647 14.2962 13.8869 14.3407 13.9017 14.3851C14.035 14.6293 14.2644 14.9476 14.5901 15.3325C14.9232 15.7174 15.2784 16.1097 15.6633 16.5019C15.7373 16.576 15.8188 16.65 15.8928 16.724C16.1888 17.0127 16.1962 17.4864 15.9002 17.7824Z" fill="white"/>
<path d="M23.9825 20.2835C23.9825 20.4907 23.9455 20.7054 23.8715 20.9126C23.8493 20.9718 23.8271 21.031 23.7975 21.0903C23.6717 21.3567 23.5088 21.6084 23.2942 21.8452C22.9315 22.2449 22.5318 22.5336 22.0803 22.7186C22.0729 22.7186 22.0655 22.726 22.0581 22.726C21.6214 22.9037 21.1477 22.9999 20.637 22.9999C19.882 22.9999 19.0752 22.8222 18.224 22.4596C17.3728 22.0969 16.5216 21.6084 15.6778 20.994C15.3892 20.7794 15.1005 20.5647 14.8267 20.3353L17.247 17.9149C17.4542 18.0704 17.6393 18.1888 17.7947 18.2702C17.8317 18.285 17.8761 18.3072 17.928 18.3294C17.9872 18.3516 18.0464 18.359 18.113 18.359C18.2388 18.359 18.335 18.3146 18.4165 18.2332L18.979 17.6781C19.164 17.493 19.3417 17.3524 19.5119 17.2636C19.6822 17.16 19.8524 17.1082 20.0374 17.1082C20.1781 17.1082 20.3261 17.1378 20.4889 17.2044C20.6518 17.271 20.822 17.3672 21.0071 17.493L23.457 19.2324C23.6495 19.3657 23.7827 19.5211 23.8641 19.7061C23.9381 19.8912 23.9825 20.0762 23.9825 20.2835Z" fill="white"/>
<defs>
<linearGradient id="paint0_linear_141_585" x1="16.7255" y1="0" x2="16.7255" y2="32.8077" gradientUnits="userSpaceOnUse">
<stop stop-color="#3185EC"/>
<stop offset="1" stop-color="#3830D7"/>
</linearGradient>
</defs>
</svg>
