<svg width="26" height="26" viewBox="0 0 26 26" fill="none" xmlns="http://www.w3.org/2000/svg">
<path d="M25.1212 2.68726L25.0785 2.66057L19.6781 0L13.8493 7.77178L16.531 11.3476C16.4507 12.6962 15.8789 13.9685 14.9236 14.9237C13.9684 15.8789 12.696 16.4508 11.3475 16.531L7.77171 13.8493L0 19.6781L2.63843 25.0333L2.66063 25.0785L2.68738 25.1212C2.82818 25.348 3.0247 25.5351 3.25824 25.6645C3.49178 25.794 3.75456 25.8615 4.02156 25.8606H5.41505C8.10001 25.8606 10.7587 25.3318 13.2393 24.3043C15.7198 23.2768 17.9737 21.7708 19.8723 19.8722C21.7708 17.9737 23.2768 15.7198 24.3043 13.2392C25.3318 10.7586 25.8607 8.09995 25.8606 5.41499V4.02144C25.8615 3.75444 25.794 3.49166 25.6646 3.25812C25.5351 3.02459 25.3481 2.82806 25.1212 2.68726ZM23.865 5.41499C23.865 15.5883 15.5883 23.865 5.41505 23.865H4.28749L2.52218 20.2813L7.77209 16.3438L10.695 18.5359H11.0276C13.0183 18.5337 14.9269 17.7419 16.3346 16.3342C17.7423 14.9265 18.5341 13.0179 18.5363 11.0271V10.6945L16.3443 7.77171L20.2813 2.52211L23.865 4.28774V5.41499Z" fill="white"/>
</svg>
