<svg width="14" height="15" viewBox="0 0 14 15" fill="none" xmlns="http://www.w3.org/2000/svg">
<path d="M5.98706 12.8287C7.31543 12.8284 8.60551 12.352 9.65189 11.4753L12.9418 15L14 13.8663L10.7101 10.3416C11.5288 9.22038 11.9738 7.83791 11.9741 6.41437C11.9741 2.87765 9.28818 0 5.98706 0C2.68595 0 0 2.87765 0 6.41437C0 9.95109 2.68595 12.8287 5.98706 12.8287ZM5.98706 1.60359C8.46346 1.60359 10.4774 3.76123 10.4774 6.41437C10.4774 9.06751 8.46346 11.2251 5.98706 11.2251C3.51066 11.2251 1.49677 9.06751 1.49677 6.41437C1.49677 3.76123 3.51066 1.60359 5.98706 1.60359Z" fill="#4F5E7B"/>
</svg>
