<svg width="30" height="30" viewBox="0 0 30 30" fill="none" xmlns="http://www.w3.org/2000/svg">
<path fill-rule="evenodd" clip-rule="evenodd" d="M28.2181 13.4449C27.949 13.4449 27.0318 13.4449 26.7627 13.4449C25.9423 13.4449 25.2775 13.9684 25.2775 14.614C25.2775 15.2596 25.9423 15.7831 26.7627 15.7831C27.0318 15.7831 27.949 15.7831 28.2181 15.7831C29.0385 15.7831 29.7033 15.2596 29.7033 14.614C29.7033 13.9684 29.0382 13.4449 28.2181 13.4449ZM14.8515 6.57674C10.3212 6.57674 6.68317 10.1565 6.68317 14.614C6.68317 19.0718 10.3212 22.6518 14.8515 22.6518C19.3812 22.6518 23.0198 19.0718 23.0198 14.614C23.0201 10.1565 19.3815 6.57674 14.8515 6.57674ZM15 20.4595C11.569 20.4595 8.91089 17.8436 8.91089 14.614C8.91089 11.3847 11.5693 8.76821 15 8.76821V20.4595ZM4.42515 14.614C4.42515 13.9684 3.7904 13.4449 2.9703 13.4449C2.69644 13.4449 1.75842 13.4449 1.48515 13.4449C0.664752 13.4449 0 13.9684 0 14.614C0 15.2596 0.664752 15.7831 1.48515 15.7831C1.75842 15.7831 2.69644 15.7831 2.9703 15.7831C3.79069 15.7831 4.42515 15.2596 4.42515 14.614ZM14.8515 4.38411C15.5076 4.38411 16.0396 3.73 16.0396 2.92274C16.0396 2.65531 16.0396 1.72909 16.0396 1.46137C16.0396 0.65411 15.5076 0 14.8515 0C14.1953 0 13.6634 0.65411 13.6634 1.46137C13.6634 1.72909 13.6634 2.65531 13.6634 2.92274C13.6634 3.73 14.1956 4.38411 14.8515 4.38411ZM14.8515 24.8436C14.1953 24.8436 13.6634 25.4977 13.6634 26.305C13.6634 26.5724 13.6634 27.4986 13.6634 27.7663C13.6634 28.5736 14.1953 29.2277 14.8515 29.2277C15.5076 29.2277 16.0396 28.5736 16.0396 27.7663C16.0396 27.4986 16.0396 26.5724 16.0396 26.305C16.0396 25.4977 15.5076 24.8436 14.8515 24.8436ZM25.7908 5.50351C26.3709 4.93299 26.465 4.09971 26.0008 3.64318C25.5365 3.18665 24.6903 3.27959 24.1108 3.84982C23.9507 4.00736 23.2313 4.71524 23.0712 4.87278C22.4911 5.44359 22.3969 6.27628 22.8612 6.73252C23.3251 7.18935 24.1717 7.09699 24.7512 6.52647C24.911 6.36893 25.6313 5.66104 25.7908 5.50351ZM4.95149 22.7018C4.79139 22.8593 4.07198 23.5678 3.91188 23.7248C3.33238 24.295 3.23822 25.128 3.70188 25.5845C4.16584 26.041 5.01238 25.9481 5.59188 25.3779C5.75198 25.2209 6.47198 24.513 6.63148 24.3555C7.21158 23.785 7.30574 22.9517 6.84149 22.4952C6.37723 22.0386 5.53129 22.1316 4.95149 22.7018ZM5.59307 3.84982C5.01297 3.2793 4.16644 3.18636 3.70248 3.64318C3.23851 4.10001 3.33297 4.9327 3.91248 5.50321C4.07257 5.66046 4.79198 6.36893 4.95208 6.52617C5.53218 7.09669 6.37812 7.18934 6.84208 6.73252C7.30604 6.2757 7.21218 5.4433 6.63267 4.87278C6.47287 4.71524 5.75317 4.00735 5.59307 3.84982ZM23.0712 24.3555C23.2313 24.513 23.9513 25.2209 24.1114 25.3782C24.6909 25.9484 25.5374 26.0413 26.0008 25.5848C26.4648 25.1283 26.3709 24.2953 25.7914 23.7251C25.6313 23.5678 24.9119 22.8593 24.7518 22.7021C24.1723 22.1316 23.3251 22.0386 22.8612 22.4955C22.3972 22.9523 22.4914 23.785 23.0712 24.3555Z" fill="white"/>
</svg>
