<svg width="30" height="22" viewBox="0 0 30 22" fill="none" xmlns="http://www.w3.org/2000/svg">
<path fill-rule="evenodd" clip-rule="evenodd" d="M28.5 3.95329H22.3L19 0.017334H11L7.7 3.95329H1.5C0.671573 3.95329 0 4.61412 0 5.42928V20.1891C0 21.0043 0.671573 21.6651 1.5 21.6651H28.5C29.3284 21.6651 30 21.0043 30 20.1891V5.42928C30 4.61412 29.3284 3.95329 28.5 3.95329ZM15 18.7131C13.1423 18.7187 11.3597 17.9923 10.05 16.696C8.74798 15.381 8.02878 13.6118 8.05 11.776L7.3 12.514C7.06523 12.822 6.66946 12.967 6.28714 12.8851C5.90482 12.8031 5.60621 12.5093 5.52292 12.1331C5.43963 11.7569 5.58697 11.3674 5.9 11.1364L9 8.03685L12.1 11.1364C12.413 11.3674 12.5604 11.7569 12.4771 12.1331C12.3938 12.5093 12.0952 12.8031 11.7129 12.8851C11.3305 12.967 10.9348 12.822 10.7 12.514L10.1 11.9236C10.1102 13.1894 10.611 14.4035 11.5 15.3184C13.0403 16.8535 15.4294 17.1951 17.35 16.1548C17.8246 15.9553 18.3754 16.144 18.6216 16.5902C18.8678 17.0365 18.7285 17.5938 18.3 17.8768C17.2892 18.4246 16.154 18.7123 15 18.7131ZM24.1 12.514L21 15.6136L17.9 12.514C17.587 12.283 17.4396 11.8936 17.5229 11.5174C17.6062 11.1412 17.9048 10.8473 18.2871 10.7654C18.6695 10.6834 19.0652 10.8284 19.3 11.1364L19.9 11.7268C19.8898 10.4611 19.389 9.24688 18.5 8.33205C16.9597 6.7969 14.5706 6.45531 12.65 7.49566C12.3347 7.70383 11.9268 7.71836 11.5971 7.53318C11.2674 7.34799 11.0726 6.99503 11.0944 6.62205C11.1163 6.24907 11.3508 5.92042 11.7 5.77368C14.399 4.34529 17.7302 4.82498 19.9 6.95446C21.202 8.26943 21.9212 10.0386 21.9 11.8744L22.65 11.1364C22.8848 10.8284 23.2805 10.6834 23.6629 10.7654C24.0452 10.8473 24.3438 11.1412 24.4271 11.5174C24.5104 11.8936 24.363 12.283 24.05 12.514H24.1Z" fill="white"/>
</svg>
