<svg width="29" height="21" viewBox="0 0 29 21" fill="none" xmlns="http://www.w3.org/2000/svg">
<path d="M27.4439 3.504C26.8639 3.24 25.6473 2.964 23.9922 3.948L21.9127 5.196C21.7571 1.464 19.8473 0 15.2073 0H6.71951C1.88146 0 0 1.596 0 5.7V15.3C0 18.06 1.76829 21 6.71951 21H15.2073C19.8473 21 21.7571 19.536 21.9127 15.804L23.9922 17.052C24.8693 17.58 25.6332 17.748 26.2415 17.748C26.7649 17.748 27.1751 17.616 27.4439 17.496C28.0239 17.244 29 16.56 29 14.844V6.156C29 4.44 28.0239 3.756 27.4439 3.504ZM13.0854 9.756C11.6283 9.756 10.4259 8.748 10.4259 7.5C10.4259 6.252 11.6283 5.244 13.0854 5.244C14.5424 5.244 15.7449 6.252 15.7449 7.5C15.7449 8.748 14.5424 9.756 13.0854 9.756Z" fill="url(#paint0_linear_174_137)"/>
<defs>
<linearGradient id="paint0_linear_174_137" x1="14.5" y1="0" x2="14.5" y2="21" gradientUnits="userSpaceOnUse">
<stop stop-color="#3087EC"/>
<stop offset="1" stop-color="#3830D7"/>
</linearGradient>
</defs>
</svg>
