<svg width="29" height="21" viewBox="0 0 29 21" fill="none" xmlns="http://www.w3.org/2000/svg">
<path d="M27.2368 3.95908L27.2367 3.95914L27.2447 3.96259C27.4796 4.06467 27.7901 4.25252 28.0412 4.5833C28.2874 4.90765 28.5 5.3998 28.5 6.156V14.844C28.5 15.6002 28.2874 16.0924 28.0412 16.4167C27.7901 16.7475 27.4796 16.9353 27.2447 17.0374L27.2446 17.0374L27.2401 17.0394C27.0198 17.1378 26.6793 17.248 26.2415 17.248C25.7297 17.248 25.0543 17.1078 24.2501 16.6236L24.2495 16.6233L22.17 15.3753L21.4482 14.9421L21.4131 15.7832C21.3386 17.5703 20.8509 18.6985 19.9358 19.4059C18.9935 20.1344 17.4961 20.5 15.2073 20.5H6.71951C4.3454 20.5 2.80605 19.7979 1.85973 18.8346C0.908491 17.8663 0.5 16.5769 0.5 15.3V5.7C0.5 3.71368 0.955644 2.46701 1.86893 1.69229C2.80422 0.898913 4.33183 0.5 6.71951 0.5H15.2073C17.4961 0.5 18.9935 0.865594 19.9358 1.59408C20.8509 2.30147 21.3386 3.42968 21.4131 5.21683L21.4482 6.0579L22.17 5.62472L24.2477 4.37778C24.2479 4.37765 24.2482 4.37751 24.2484 4.37737C25.7505 3.4846 26.7929 3.75704 27.2368 3.95908ZM9.92585 7.5C9.92585 9.09968 11.4343 10.256 13.0854 10.256C14.7364 10.256 16.2449 9.09968 16.2449 7.5C16.2449 5.90032 14.7364 4.744 13.0854 4.744C11.4343 4.744 9.92585 5.90032 9.92585 7.5Z" fill="white" stroke="#9F9F9F"/>
</svg>
